<?xml version="1.0" standalone="no"?>
<!DOCTYPE svg PUBLIC "-//W3C//DTD SVG 20010904//EN"
 "http://www.w3.org/TR/2001/REC-SVG-20010904/DTD/svg10.dtd">
<svg version="1.0" xmlns="http://www.w3.org/2000/svg"
 width="561.000000pt" height="561.000000pt" viewBox="0 0 561.000000 561.000000"
 preserveAspectRatio="xMidYMid meet">
<metadata>
Created by potrace 1.11, written by Peter Selinger 2001-2013
</metadata>
<g transform="translate(0.000000,561.000000) scale(0.100000,-0.100000)"
fill="#000000" stroke="none">
<path d="M2790 5473 c-62 -76 -128 -158 -148 -182 -21 -24 -48 -59 -62 -76
-46 -59 -144 -180 -150 -185 -3 -3 -34 -41 -69 -85 -72 -91 -60 -76 -246 -305
l-139 -172 -21 26 c-11 14 -27 26 -35 25 -8 0 -100 -57 -205 -127 -137 -92
-190 -132 -188 -145 1 -15 251 -405 273 -427 3 -3 11 -16 18 -30 10 -21 7 -49
-23 -190 -20 -90 -38 -177 -40 -192 -3 -16 -12 -61 -21 -101 -8 -39 -17 -81
-20 -92 -49 -246 -83 -409 -120 -584 -25 -118 -43 -220 -40 -228 3 -7 2 -12
-2 -11 -4 1 -29 -8 -57 -21 -478 -217 -803 -275 -881 -157 -65 100 37 332 285
651 74 96 212 259 245 291 6 5 36 37 66 69 83 91 0 15 -150 -135 -127 -128
-196 -205 -283 -314 -26 -34 -54 -69 -62 -79 -8 -9 -15 -20 -15 -24 0 -4 -9
-16 -19 -27 -31 -34 -118 -206 -136 -269 -28 -96 -11 -191 42 -239 72 -65 217
-78 413 -37 135 27 379 113 557 195 l52 23 343 -205 c814 -489 957 -574 968
-574 10 0 190 103 257 147 21 14 24 11 85 -81 45 -68 69 -96 83 -96 18 0 344
208 387 247 16 14 16 17 -3 52 -24 45 -42 75 -50 81 -11 10 -43 69 -38 73 6 6
281 170 304 183 50 26 351 208 362 218 9 8 3 50 -26 181 -64 283 -270 1191
-276 1215 -2 8 -11 48 -19 88 l-16 73 60 56 c161 148 436 440 545 578 22 28
43 55 48 60 53 63 148 212 192 300 86 172 100 275 51 359 -79 135 -326 125
-711 -30 -129 -51 -325 -141 -325 -149 0 -2 44 15 98 37 443 181 773 232 870
134 105 -105 -56 -415 -413 -794 -125 -133 -428 -432 -438 -432 -5 0 -11 20
-21 75 -2 11 -11 47 -20 80 -8 33 -18 76 -21 95 -13 76 -44 182 -58 198 -8 9
-63 76 -122 147 -59 72 -114 139 -124 150 -9 11 -48 58 -86 105 -38 47 -72 87
-75 90 -3 3 -35 41 -70 85 -36 44 -69 85 -75 91 -5 7 -17 20 -25 31 -37 46
-105 128 -110 133 -3 3 -24 28 -45 55 -22 28 -43 52 -46 55 -3 3 -38 44 -77
93 l-71 87 -111 -137z"/>
<path d="M721 1112 c-8 -3 -11 -60 -11 -188 l0 -184 135 1 135 2 -2 28 -2 29
-103 0 -102 0 1 50 0 50 89 0 89 0 0 29 0 28 -72 1 c-40 0 -80 0 -89 1 -12 1
-16 12 -16 45 0 25 5 47 11 49 6 2 51 3 99 2 l88 -1 -3 30 -3 30 -116 1 c-64
0 -121 -1 -128 -3z"/>
<path d="M1172 1105 c-93 -40 -137 -164 -91 -255 73 -147 276 -146 354 0 23
44 14 140 -17 187 -48 73 -162 105 -246 68z m163 -70 c98 -74 45 -235 -78
-235 -154 0 -177 222 -27 263 30 8 74 -4 105 -28z"/>
<path d="M1598 1104 c-58 -31 -71 -120 -24 -160 13 -12 56 -31 95 -43 58 -18
72 -26 77 -46 13 -54 -65 -74 -141 -35 -36 18 -40 19 -57 3 -27 -24 -23 -32
35 -58 122 -57 246 -4 230 99 -7 45 -39 74 -103 92 -94 27 -125 61 -85 94 21
17 92 14 121 -5 20 -13 24 -12 39 5 9 10 14 24 10 30 -23 37 -146 52 -197 24z"/>
<path d="M2129 1111 c-11 -5 -14 -37 -13 -176 1 -93 2 -175 3 -182 0 -7 13
-11 29 -10 l27 2 3 133 3 133 103 -133 c90 -116 108 -134 135 -136 17 -1 32 1
32 5 1 5 3 87 4 185 l2 176 -29 4 c-16 3 -30 2 -32 -1 -2 -3 -3 -63 -2 -133 1
-71 -2 -128 -5 -128 -3 0 -51 58 -105 129 -95 123 -121 145 -155 132z"/>
<path d="M2607 1112 c-15 -3 -17 -22 -17 -187 l0 -183 133 2 132 1 3 27 3 27
-103 3 -103 3 0 48 -1 47 88 0 88 0 0 30 0 29 -72 0 c-111 -2 -104 -4 -104 44
0 23 4 45 8 48 5 3 49 5 98 4 l90 -1 0 30 0 31 -113 0 c-62 0 -120 -1 -130 -3z"/>
<path d="M2940 1084 l0 -30 55 2 55 2 0 -157 0 -157 29 -2 c36 -3 37 -1 36
171 -1 88 3 138 10 139 15 2 57 6 80 7 14 1 21 9 23 26 1 14 -4 25 -11 26 -6
0 -72 2 -144 2 l-133 2 0 -31z"/>
<path d="M3306 1113 c-3 -4 90 -283 119 -355 4 -11 17 -16 36 -16 28 1 30 4
65 117 20 64 40 120 44 124 4 4 12 -12 19 -35 62 -212 58 -204 93 -204 l32 1
63 179 c34 98 61 182 58 186 -4 7 -53 6 -60 -2 -1 -2 -22 -58 -45 -125 -24
-67 -47 -120 -50 -118 -4 2 -22 55 -40 117 -18 62 -37 118 -42 124 -4 6 -19 9
-33 6 -21 -4 -28 -16 -51 -91 -46 -153 -49 -161 -54 -161 -3 0 -25 57 -49 128
-42 122 -45 127 -72 128 -16 1 -31 -1 -33 -3z"/>
<path d="M4025 1113 c-11 -3 -34 -17 -53 -31 -133 -102 -70 -324 97 -340 116
-11 208 64 216 176 5 82 -40 158 -112 188 -31 14 -108 17 -148 7z m123 -62
c43 -18 76 -73 74 -123 -4 -101 -102 -160 -190 -114 -101 52 -84 216 24 245
37 9 53 8 92 -8z"/>
<path d="M4410 1112 c-6 -2 -10 -73 -10 -186 l0 -183 30 -1 c27 -1 30 2 31 31
3 95 1 91 44 94 39 3 41 2 84 -62 42 -62 46 -64 82 -62 l38 2 -16 25 c-9 14
-29 42 -46 63 l-29 38 37 32 c36 31 38 36 37 91 0 66 -15 89 -69 107 -33 10
-190 18 -213 11z m205 -72 c16 -13 20 -67 7 -86 -14 -21 -47 -31 -102 -30
l-55 1 -2 45 c-4 86 -2 89 72 86 35 -2 71 -9 80 -16z"/>
<path d="M4830 1111 c-13 -5 -15 -32 -14 -166 2 -221 -1 -203 34 -201 29 1 30
2 30 53 0 42 5 57 26 80 l26 28 16 -21 c10 -11 38 -48 63 -81 39 -50 52 -60
78 -61 17 0 31 3 31 7 0 4 -32 52 -70 106 l-71 98 30 31 c68 72 111 120 111
126 0 3 -17 5 -37 4 -32 -2 -46 -12 -119 -91 l-83 -88 -3 89 c-3 92 -9 103
-48 87z"/>
<path d="M1934 812 c-18 -12 -23 -39 -10 -58 19 -25 66 -12 66 19 0 37 -29 57
-56 39z"/>
<path d="M2155 474 c-134 -48 -169 -228 -61 -320 64 -55 144 -65 223 -28 95
46 131 176 73 269 -46 75 -149 109 -235 79z m157 -80 c25 -24 31 -39 42 -99 2
-11 -4 -35 -13 -54 -61 -128 -242 -89 -245 53 -1 114 135 177 216 100z"/>
<path d="M3661 482 c-57 -10 -124 -75 -139 -134 -39 -153 93 -278 245 -233
134 40 180 207 85 308 -15 16 -39 35 -53 42 -28 15 -101 24 -138 17z m104 -68
c42 -19 64 -52 71 -103 19 -138 -164 -206 -236 -88 -38 61 -17 151 42 187 40
24 79 25 123 4z"/>
<path d="M1499 370 c0 -60 0 -137 0 -170 0 -33 0 -66 0 -74 1 -15 49 -28 57
-15 2 4 5 70 5 146 l0 138 63 -125 c44 -85 70 -126 83 -128 14 -2 31 22 78
119 33 66 62 122 65 124 3 2 5 -59 4 -135 l-1 -138 29 -4 c16 -3 30 -2 32 1 2
3 3 87 2 186 l-1 180 -47 3 -46 3 -57 -118 -58 -118 -56 115 -56 116 -47 2
-48 3 -1 -111z"/>
<path d="M2530 296 l0 -184 25 -4 c14 -3 28 0 33 6 4 6 7 66 7 134 -1 67 0
122 2 122 1 0 47 -58 102 -129 98 -125 117 -141 154 -133 15 3 17 20 17 188
l0 184 -30 0 -30 0 -1 -137 0 -138 -29 35 c-15 19 -65 81 -109 138 -71 89 -85
102 -111 102 l-30 0 0 -184z"/>
<path d="M3009 463 c-5 -80 -3 -340 3 -349 5 -6 19 -9 33 -6 l25 4 0 184 0
184 -30 0 c-21 0 -30 -5 -31 -17z"/>
<path d="M3169 472 c-10 -51 -9 -52 51 -52 l57 0 -2 -151 c-1 -159 3 -173 46
-162 18 5 19 18 19 159 l0 154 55 0 c54 0 55 0 55 30 l0 29 -140 0 c-77 -1
-141 -4 -141 -7z"/>
<path d="M4019 478 c-1 -2 -2 -83 -3 -181 -2 -188 1 -201 45 -190 14 4 18 15
17 52 0 25 1 52 1 59 1 7 17 12 44 12 39 0 44 -3 69 -43 44 -70 62 -84 97 -79
17 2 31 7 31 11 -1 3 -20 30 -43 60 l-42 53 37 38 c32 31 38 44 38 79 0 53
-23 99 -58 113 -24 9 -230 23 -233 16z m212 -79 c14 -14 19 -28 15 -42 -3 -12
-6 -28 -6 -35 0 -17 -43 -32 -94 -33 -74 -2 -71 -5 -69 61 1 33 2 62 2 65 1 3
30 5 66 5 53 0 69 -4 86 -21z"/>
</g>
</svg>
